<svg width="236" height="112" viewBox="0 0 236 112" fill="none" xmlns="http://www.w3.org/2000/svg">
<path d="M128.204 50.52C128.204 52.6267 127.804 54.7067 127.004 56.76C126.204 58.8133 124.884 61.2133 123.044 63.96L117.244 72.52H112.764L119.764 62.72C120.938 61.0933 121.858 59.6133 122.524 58.28C121.058 59.4267 119.351 60 117.404 60C115.538 60 113.871 59.5733 112.404 58.72C110.938 57.8667 109.791 56.6933 108.964 55.2C108.138 53.68 107.724 51.9467 107.724 50C107.724 48.08 108.164 46.36 109.044 44.84C109.951 43.32 111.178 42.1333 112.724 41.28C114.298 40.4267 116.071 40 118.044 40C120.044 40 121.804 40.44 123.324 41.32C124.871 42.1733 126.071 43.4 126.924 45C127.778 46.5733 128.204 48.4133 128.204 50.52ZM118.044 56.68C119.858 56.68 121.338 56.1333 122.484 55.04C123.631 53.92 124.271 52.4267 124.404 50.56V50C124.404 47.9733 123.818 46.36 122.644 45.16C121.471 43.9333 119.938 43.32 118.044 43.32C116.098 43.32 114.524 43.9333 113.324 45.16C112.151 46.3867 111.564 48 111.564 50C111.564 52.0533 112.151 53.68 113.324 54.88C114.498 56.08 116.071 56.68 118.044 56.68Z" fill="white"/>
</svg>
