<svg width="236" height="112" viewBox="0 0 236 112" fill="none" xmlns="http://www.w3.org/2000/svg">
<path d="M106.682 44.1333C107.24 43.1808 107.365 43.0012 107.499 42.8812C107.655 42.7419 107.838 42.6368 108.037 42.5726C108.209 42.5172 108.427 42.5 109.531 42.5H133.133C133.718 42.5 134.067 42.5012 134.325 42.5223C134.482 42.5351 134.549 42.5521 134.566 42.5576C134.656 42.6047 134.729 42.6776 134.776 42.7669C134.781 42.7847 134.798 42.8509 134.811 43.0086C134.832 43.2668 134.833 43.6152 134.833 44.2V67.8C134.833 68.3848 134.832 68.7332 134.811 68.9914C134.798 69.1491 134.781 69.2153 134.776 69.2331C134.729 69.3223 134.656 69.3953 134.566 69.4424C134.549 69.4479 134.482 69.4649 134.325 69.4777C134.067 69.4988 133.718 69.5 133.133 69.5H109.531C108.427 69.5 108.209 69.4828 108.037 69.4274C107.838 69.3632 107.655 69.2581 107.499 69.1188C107.365 68.9988 107.24 68.8192 106.682 67.8667L100.24 56.8586C100.059 56.5494 99.9572 56.3734 99.8877 56.2364C99.8449 56.152 99.8314 56.1143 99.8283 56.1042C99.8136 56.0355 99.8136 55.9645 99.8283 55.8958C99.8314 55.8857 99.8449 55.848 99.8877 55.7636C99.9572 55.6266 100.059 55.4506 100.24 55.1414L106.682 44.1333ZM134.572 42.5595C134.572 42.5595 134.57 42.5591 134.569 42.5583C134.571 42.559 134.572 42.5594 134.572 42.5595ZM134.774 42.7617C134.774 42.7617 134.774 42.7626 134.775 42.7648C134.774 42.7629 134.774 42.7618 134.774 42.7617ZM134.774 69.2382C134.774 69.2384 134.774 69.2373 134.775 69.2352C134.774 69.2372 134.774 69.2381 134.774 69.2382ZM99.8275 56.1012C99.8275 56.1013 99.8278 56.1023 99.8282 56.1041C99.8276 56.1021 99.8274 56.1012 99.8275 56.1012ZM99.8275 55.8988C99.8274 55.8988 99.8276 55.8979 99.8282 55.8959C99.8278 55.8977 99.8275 55.8987 99.8275 55.8988Z" stroke="#FB7054" stroke-width="3"/>
<path fill-rule="evenodd" clip-rule="evenodd" d="M124.427 48.8814C124.823 48.4854 125.021 48.2873 125.25 48.2132C125.45 48.1479 125.667 48.1479 125.868 48.2132C126.096 48.2873 126.294 48.4854 126.69 48.8814L126.784 48.9757C127.18 49.3717 127.378 49.5697 127.452 49.798C127.518 49.9988 127.518 50.2152 127.452 50.416C127.378 50.6444 127.18 50.8424 126.784 51.2384L114.905 63.1178C114.509 63.5138 114.311 63.7118 114.082 63.786C113.882 63.8513 113.665 63.8513 113.464 63.786C113.236 63.7118 113.038 63.5138 112.642 63.1178L112.548 63.0235C112.152 62.6275 111.954 62.4295 111.88 62.2012C111.814 62.0003 111.814 61.784 111.88 61.5831C111.954 61.3548 112.152 61.1568 112.548 60.7608L124.427 48.8814Z" fill="#FB7054"/>
<path fill-rule="evenodd" clip-rule="evenodd" d="M114.905 48.8814C114.509 48.4854 114.311 48.2873 114.082 48.2132C113.882 48.1479 113.665 48.1479 113.464 48.2132C113.236 48.2873 113.038 48.4854 112.642 48.8814L112.548 48.9757C112.152 49.3717 111.954 49.5697 111.88 49.798C111.814 49.9988 111.814 50.2152 111.88 50.416C111.954 50.6444 112.152 50.8424 112.548 51.2384L124.427 63.1178C124.823 63.5138 125.021 63.7118 125.25 63.786C125.45 63.8513 125.667 63.8513 125.868 63.786C126.096 63.7118 126.294 63.5138 126.69 63.1178L126.784 63.0235C127.18 62.6275 127.378 62.4295 127.452 62.2012C127.518 62.0003 127.518 61.784 127.452 61.5831C127.378 61.3548 127.18 61.1568 126.784 60.7608L114.905 48.8814Z" fill="#FB7054"/>
</svg>
