<svg width="476" height="112" viewBox="0 0 476 112" fill="none" xmlns="http://www.w3.org/2000/svg">
<path d="M238.006 73C234.432 73 231.712 71.5867 229.846 68.76C227.979 65.9067 227.046 61.8267 227.046 56.52C227.046 51.1867 227.979 47.1067 229.846 44.28C231.712 41.4267 234.432 40 238.006 40C241.579 40 244.299 41.4267 246.166 44.28C248.032 47.1067 248.966 51.1867 248.966 56.52C248.966 61.8267 248.032 65.9067 246.166 68.76C244.299 71.5867 241.579 73 238.006 73ZM238.006 69.68C242.699 69.68 245.046 65.2933 245.046 56.52C245.046 52.0933 244.459 48.7867 243.286 46.6C242.139 44.4133 240.379 43.32 238.006 43.32C235.632 43.32 233.859 44.4133 232.686 46.6C231.539 48.7867 230.966 52.0933 230.966 56.52C230.966 60.92 231.539 64.2133 232.686 66.4C233.859 68.5867 235.632 69.68 238.006 69.68Z" fill="white"/>
</svg>
