<svg width="236" height="112" viewBox="0 0 236 112" fill="none" xmlns="http://www.w3.org/2000/svg">
<path d="M128.244 69.16V72.52H107.884V69.84L120.724 56.64C121.898 55.4133 122.764 54.2533 123.324 53.16C123.884 52.04 124.164 50.8667 124.164 49.64C124.164 47.72 123.604 46.1867 122.484 45.04C121.364 43.8933 119.844 43.32 117.924 43.32C116.218 43.32 114.791 43.7467 113.644 44.6C112.498 45.4267 111.698 46.6133 111.244 48.16L108.284 46.4C108.951 44.3467 110.124 42.7733 111.804 41.68C113.511 40.56 115.591 40 118.044 40C119.991 40 121.724 40.4133 123.244 41.24C124.764 42.04 125.951 43.1733 126.804 44.64C127.658 46.1067 128.084 47.76 128.084 49.6C128.084 51.3067 127.684 52.88 126.884 54.32C126.084 55.76 124.844 57.36 123.164 59.12L113.484 69.16H128.244Z" fill="white"/>
</svg>
