<svg width="236" height="112" viewBox="0 0 236 112" fill="none" xmlns="http://www.w3.org/2000/svg">
<path d="M128.204 63C128.204 64.8933 127.764 66.6133 126.884 68.16C126.004 69.68 124.791 70.8667 123.244 71.72C121.698 72.5733 119.951 73 118.004 73C116.004 73 114.218 72.56 112.644 71.68C111.098 70.8267 109.884 69.6133 109.004 68.04C108.151 66.44 107.724 64.6 107.724 62.52C107.724 60.3867 108.124 58.2933 108.924 56.24C109.724 54.16 111.058 51.76 112.924 49.04L118.764 40.48H123.204L116.244 50.28C115.098 51.88 114.164 53.3733 113.444 54.76C114.964 53.6133 116.671 53.04 118.564 53.04C120.431 53.04 122.098 53.4667 123.564 54.32C125.031 55.1467 126.164 56.32 126.964 57.84C127.791 59.3333 128.204 61.0533 128.204 63ZM124.404 63C124.404 60.9733 123.818 59.36 122.644 58.16C121.498 56.9333 119.951 56.32 118.004 56.32C116.138 56.32 114.631 56.88 113.484 58C112.338 59.0933 111.698 60.5733 111.564 62.44V63C111.564 65 112.151 66.6133 113.324 67.84C114.524 69.0667 116.084 69.68 118.004 69.68C119.898 69.68 121.431 69.0667 122.604 67.84C123.804 66.6133 124.404 65 124.404 63Z" fill="white"/>
</svg>
