<svg width="236" height="112" viewBox="0 0 236 112" fill="none" xmlns="http://www.w3.org/2000/svg">
<path d="M128.364 63.32C128.364 65.1867 127.924 66.8533 127.044 68.32C126.191 69.7867 124.978 70.9333 123.404 71.76C121.831 72.5867 120.031 73 118.004 73C115.978 73 114.164 72.5867 112.564 71.76C110.991 70.9333 109.764 69.7867 108.884 68.32C108.004 66.8533 107.564 65.1867 107.564 63.32C107.564 61.4533 108.044 59.8 109.004 58.36C109.991 56.92 111.351 55.84 113.084 55.12C111.804 54.4267 110.804 53.5067 110.084 52.36C109.364 51.1867 109.004 49.88 109.004 48.44C109.004 46.8133 109.378 45.36 110.124 44.08C110.898 42.8 111.964 41.8 113.324 41.08C114.684 40.36 116.244 40 118.004 40C119.738 40 121.284 40.36 122.644 41.08C124.004 41.8 125.058 42.8133 125.804 44.12C126.578 45.4 126.964 46.84 126.964 48.44C126.964 49.88 126.604 51.1867 125.884 52.36C125.164 53.5067 124.164 54.4267 122.884 55.12C124.591 55.84 125.924 56.92 126.884 58.36C127.871 59.7733 128.364 61.4267 128.364 63.32ZM112.644 48.4C112.644 49.9733 113.138 51.2533 114.124 52.24C115.111 53.2267 116.404 53.72 118.004 53.72C119.578 53.72 120.858 53.2267 121.844 52.24C122.858 51.2533 123.364 49.9733 123.364 48.4C123.364 46.8267 122.871 45.5467 121.884 44.56C120.898 43.5467 119.604 43.04 118.004 43.04C116.404 43.04 115.111 43.5333 114.124 44.52C113.138 45.5067 112.644 46.8 112.644 48.4ZM124.684 63.24C124.684 61.2667 124.071 59.68 122.844 58.48C121.644 57.28 120.031 56.68 118.004 56.68C115.978 56.68 114.351 57.28 113.124 58.48C111.898 59.68 111.284 61.2667 111.284 63.24C111.284 65.2133 111.911 66.8 113.164 68C114.418 69.2 116.031 69.8 118.004 69.8C119.978 69.8 121.578 69.2 122.804 68C124.058 66.8 124.684 65.2133 124.684 63.24Z" fill="white"/>
</svg>
