<svg width="236" height="112" viewBox="0 0 236 112" fill="none" xmlns="http://www.w3.org/2000/svg">
<path d="M93.8934 67C93.8934 69.6133 93.9334 71.4533 94.0134 72.52H90.6134C90.5334 72.04 90.4534 70.6 90.3734 68.2C89.5734 69.72 88.5068 70.8933 87.1734 71.72C85.8401 72.5733 84.2801 73 82.4934 73C80.6534 73 78.9868 72.48 77.4934 71.44C76.0268 70.4267 74.8668 69 74.0134 67.16C73.1868 65.2933 72.7734 63.1733 72.7734 60.8C72.7734 58.4 73.1868 56.2667 74.0134 54.4C74.8668 52.5333 76.0268 51.0933 77.4934 50.08C78.9868 49.04 80.6534 48.52 82.4934 48.52C84.2801 48.52 85.8401 48.9467 87.1734 49.8C88.5068 50.6267 89.5734 51.8133 90.3734 53.36C90.4801 50.9067 90.5601 49.4533 90.6134 49H94.0134C93.9334 50.12 93.8934 51.96 93.8934 54.52V67ZM90.0534 60.8C90.0534 58.9867 89.7734 57.3867 89.2134 56C88.6534 54.6133 87.8668 53.5467 86.8534 52.8C85.8401 52.0533 84.6668 51.68 83.3334 51.68C82.0268 51.68 80.8668 52.0667 79.8534 52.84C78.8401 53.5867 78.0534 54.6533 77.4934 56.04C76.9334 57.4 76.6534 58.9867 76.6534 60.8C76.6534 62.5867 76.9334 64.1733 77.4934 65.56C78.0801 66.92 78.8668 67.9867 79.8534 68.76C80.8668 69.5067 82.0268 69.88 83.3334 69.88C84.6401 69.88 85.8001 69.5067 86.8134 68.76C87.8534 67.9867 88.6534 66.92 89.2134 65.56C89.7734 64.1733 90.0534 62.5867 90.0534 60.8ZM109.348 48.52C111.588 48.52 113.415 49.0133 114.828 50C116.241 50.9867 117.161 52.2533 117.588 53.8L114.308 55.36C114.041 54.2667 113.508 53.4133 112.708 52.8C111.935 52.16 110.841 51.84 109.428 51.84C108.095 51.84 106.921 52.2133 105.908 52.96C104.895 53.68 104.108 54.72 103.548 56.08C102.988 57.4133 102.708 58.9867 102.708 60.8C102.708 62.5867 102.988 64.16 103.548 65.52C104.108 66.8533 104.895 67.8933 105.908 68.64C106.921 69.36 108.095 69.72 109.428 69.72C112.148 69.72 113.775 68.56 114.308 66.24L117.588 67.72C117.161 69.2667 116.228 70.5333 114.788 71.52C113.375 72.5067 111.561 73 109.348 73C107.295 73 105.468 72.48 103.868 71.44C102.295 70.4267 101.055 69 100.148 67.16C99.2681 65.2933 98.8281 63.1733 98.8281 60.8C98.8281 58.4 99.2681 56.28 100.148 54.44C101.055 52.5733 102.295 51.12 103.868 50.08C105.468 49.04 107.295 48.52 109.348 48.52ZM131.654 48.52C133.68 48.52 135.494 49.04 137.094 50.08C138.694 51.12 139.934 52.5733 140.814 54.44C141.72 56.28 142.174 58.4 142.174 60.8C142.174 63.1733 141.72 65.2933 140.814 67.16C139.934 69 138.694 70.4267 137.094 71.44C135.494 72.48 133.68 73 131.654 73C129.6 73 127.774 72.48 126.174 71.44C124.574 70.4267 123.32 69 122.414 67.16C121.534 65.2933 121.094 63.1733 121.094 60.8C121.094 58.4 121.534 56.28 122.414 54.44C123.32 52.5733 124.574 51.12 126.174 50.08C127.774 49.04 129.6 48.52 131.654 48.52ZM131.654 51.68C130.347 51.68 129.187 52.0667 128.174 52.84C127.16 53.5867 126.374 54.6533 125.814 56.04C125.254 57.4 124.974 58.9867 124.974 60.8C124.974 62.5867 125.254 64.1733 125.814 65.56C126.374 66.92 127.16 67.9867 128.174 68.76C129.187 69.5067 130.347 69.88 131.654 69.88C132.96 69.88 134.12 69.5067 135.134 68.76C136.147 67.9867 136.934 66.92 137.494 65.56C138.054 64.1733 138.334 62.5867 138.334 60.8C138.334 58.9867 138.054 57.4 137.494 56.04C136.934 54.6533 136.147 53.5867 135.134 52.84C134.12 52.0667 132.96 51.68 131.654 51.68ZM146.691 55.12C146.691 53.84 147.024 52.7067 147.691 51.72C148.384 50.7067 149.344 49.92 150.571 49.36C151.798 48.8 153.184 48.52 154.731 48.52C156.891 48.52 158.678 48.96 160.091 49.84C161.531 50.72 162.451 51.92 162.851 53.44L159.851 54.8C159.531 53.76 158.971 52.9733 158.171 52.44C157.398 51.88 156.291 51.6 154.851 51.6C153.491 51.6 152.424 51.8933 151.651 52.48C150.878 53.0667 150.491 53.9067 150.491 55C150.491 56.0133 150.864 56.7867 151.611 57.32C152.384 57.8533 153.744 58.28 155.691 58.6C158.358 59.0267 160.318 59.84 161.571 61.04C162.851 62.2133 163.491 63.8267 163.491 65.88C163.491 67.2933 163.118 68.5467 162.371 69.64C161.651 70.7067 160.638 71.5333 159.331 72.12C158.051 72.7067 156.584 73 154.931 73C152.504 73 150.504 72.5067 148.931 71.52C147.358 70.56 146.304 69.16 145.771 67.32L148.771 65.96C149.198 67.2933 149.891 68.2933 150.851 68.96C151.838 69.6267 153.144 69.96 154.771 69.96C156.291 69.96 157.491 69.6133 158.371 68.92C159.251 68.2267 159.691 67.28 159.691 66.08C159.691 64.8 159.291 63.8533 158.491 63.24C157.691 62.6 156.251 62.1067 154.171 61.76C151.638 61.3333 149.758 60.5733 148.531 59.48C147.304 58.3867 146.691 56.9333 146.691 55.12Z" fill="white"/>
</svg>
