<svg width="236" height="112" viewBox="0 0 236 112" fill="none" xmlns="http://www.w3.org/2000/svg">
<path d="M93.7059 67C93.7059 69.6133 93.7459 71.4533 93.8259 72.52H90.4259C90.3459 72.04 90.2659 70.6 90.1859 68.2C89.3859 69.72 88.3193 70.8933 86.9859 71.72C85.6526 72.5733 84.0926 73 82.3059 73C80.4659 73 78.7993 72.48 77.3059 71.44C75.8393 70.4267 74.6793 69 73.8259 67.16C72.9993 65.2933 72.5859 63.1733 72.5859 60.8C72.5859 58.4 72.9993 56.2667 73.8259 54.4C74.6793 52.5333 75.8393 51.0933 77.3059 50.08C78.7993 49.04 80.4659 48.52 82.3059 48.52C84.0926 48.52 85.6526 48.9467 86.9859 49.8C88.3193 50.6267 89.3859 51.8133 90.1859 53.36C90.2926 50.9067 90.3726 49.4533 90.4259 49H93.8259C93.7459 50.12 93.7059 51.96 93.7059 54.52V67ZM89.8659 60.8C89.8659 58.9867 89.5859 57.3867 89.0259 56C88.4659 54.6133 87.6793 53.5467 86.6659 52.8C85.6526 52.0533 84.4793 51.68 83.1459 51.68C81.8393 51.68 80.6793 52.0667 79.6659 52.84C78.6526 53.5867 77.8659 54.6533 77.3059 56.04C76.7459 57.4 76.4659 58.9867 76.4659 60.8C76.4659 62.5867 76.7459 64.1733 77.3059 65.56C77.8926 66.92 78.6793 67.9867 79.6659 68.76C80.6793 69.5067 81.8393 69.88 83.1459 69.88C84.4526 69.88 85.6126 69.5067 86.6259 68.76C87.6659 67.9867 88.4659 66.92 89.0259 65.56C89.5859 64.1733 89.8659 62.5867 89.8659 60.8ZM105.481 52.16V66.48C105.481 67.5733 105.761 68.3867 106.321 68.92C106.881 69.4533 107.694 69.72 108.761 69.72C109.774 69.72 110.574 69.6133 111.161 69.4V72.48C110.307 72.8267 109.281 73 108.081 73C106.107 73 104.534 72.4267 103.361 71.28C102.214 70.16 101.641 68.6133 101.641 66.64V52.16H98.0406V49H101.641V43.16H105.481V49H111.161V52.16H105.481ZM135.972 67C135.972 69.6133 136.012 71.4533 136.092 72.52H132.692C132.612 72.04 132.532 70.6 132.452 68.2C131.652 69.72 130.585 70.8933 129.252 71.72C127.918 72.5733 126.358 73 124.572 73C122.732 73 121.065 72.48 119.572 71.44C118.105 70.4267 116.945 69 116.092 67.16C115.265 65.2933 114.852 63.1733 114.852 60.8C114.852 58.4 115.265 56.2667 116.092 54.4C116.945 52.5333 118.105 51.0933 119.572 50.08C121.065 49.04 122.732 48.52 124.572 48.52C126.358 48.52 127.918 48.9467 129.252 49.8C130.585 50.6267 131.652 51.8133 132.452 53.36C132.558 50.9067 132.638 49.4533 132.692 49H136.092C136.012 50.12 135.972 51.96 135.972 54.52V67ZM132.132 60.8C132.132 58.9867 131.852 57.3867 131.292 56C130.732 54.6133 129.945 53.5467 128.932 52.8C127.918 52.0533 126.745 51.68 125.412 51.68C124.105 51.68 122.945 52.0667 121.932 52.84C120.918 53.5867 120.132 54.6533 119.572 56.04C119.012 57.4 118.732 58.9867 118.732 60.8C118.732 62.5867 119.012 64.1733 119.572 65.56C120.158 66.92 120.945 67.9867 121.932 68.76C122.945 69.5067 124.105 69.88 125.412 69.88C126.718 69.88 127.878 69.5067 128.892 68.76C129.932 67.9867 130.732 66.92 131.292 65.56C131.852 64.1733 132.132 62.5867 132.132 60.8ZM161.626 56.92V72.52H157.826V57.52C157.826 55.6 157.373 54.1733 156.466 53.24C155.586 52.3067 154.24 51.84 152.426 51.84C150.4 51.84 148.773 52.5467 147.546 53.96C146.32 55.3467 145.706 57.2 145.706 59.52V72.52H141.866V54.52C141.866 52.3333 141.813 50.4933 141.706 49H145.066C145.2 49.8533 145.28 51.2667 145.306 53.24C146.986 50.0933 149.786 48.52 153.706 48.52C156.186 48.52 158.12 49.2667 159.506 50.76C160.92 52.2267 161.626 54.28 161.626 56.92Z" fill="white"/>
</svg>
