<svg width="236" height="112" viewBox="0 0 236 112" fill="none" xmlns="http://www.w3.org/2000/svg">
<path d="M96.8208 48.52C99.0608 48.52 100.887 49.0133 102.301 50C103.714 50.9867 104.634 52.2533 105.061 53.8L101.781 55.36C101.514 54.2667 100.981 53.4133 100.181 52.8C99.4074 52.16 98.3141 51.84 96.9008 51.84C95.5674 51.84 94.3941 52.2133 93.3808 52.96C92.3674 53.68 91.5808 54.72 91.0208 56.08C90.4608 57.4133 90.1808 58.9867 90.1808 60.8C90.1808 62.5867 90.4608 64.16 91.0208 65.52C91.5808 66.8533 92.3674 67.8933 93.3808 68.64C94.3941 69.36 95.5674 69.72 96.9008 69.72C99.6208 69.72 101.247 68.56 101.781 66.24L105.061 67.72C104.634 69.2667 103.701 70.5333 102.261 71.52C100.847 72.5067 99.0341 73 96.8208 73C94.7674 73 92.9408 72.48 91.3408 71.44C89.7674 70.4267 88.5274 69 87.6208 67.16C86.7408 65.2933 86.3008 63.1733 86.3008 60.8C86.3008 58.4 86.7408 56.28 87.6208 54.44C88.5274 52.5733 89.7674 51.12 91.3408 50.08C92.9408 49.04 94.7674 48.52 96.8208 48.52ZM119.126 48.52C121.153 48.52 122.966 49.04 124.566 50.08C126.166 51.12 127.406 52.5733 128.286 54.44C129.193 56.28 129.646 58.4 129.646 60.8C129.646 63.1733 129.193 65.2933 128.286 67.16C127.406 69 126.166 70.4267 124.566 71.44C122.966 72.48 121.153 73 119.126 73C117.073 73 115.246 72.48 113.646 71.44C112.046 70.4267 110.793 69 109.886 67.16C109.006 65.2933 108.566 63.1733 108.566 60.8C108.566 58.4 109.006 56.28 109.886 54.44C110.793 52.5733 112.046 51.12 113.646 50.08C115.246 49.04 117.073 48.52 119.126 48.52ZM119.126 51.68C117.82 51.68 116.66 52.0667 115.646 52.84C114.633 53.5867 113.846 54.6533 113.286 56.04C112.726 57.4 112.446 58.9867 112.446 60.8C112.446 62.5867 112.726 64.1733 113.286 65.56C113.846 66.92 114.633 67.9867 115.646 68.76C116.66 69.5067 117.82 69.88 119.126 69.88C120.433 69.88 121.593 69.5067 122.606 68.76C123.62 67.9867 124.406 66.92 124.966 65.56C125.526 64.1733 125.806 62.5867 125.806 60.8C125.806 58.9867 125.526 57.4 124.966 56.04C124.406 54.6533 123.62 53.5867 122.606 52.84C121.593 52.0667 120.433 51.68 119.126 51.68ZM134.164 55.12C134.164 53.84 134.497 52.7067 135.164 51.72C135.857 50.7067 136.817 49.92 138.044 49.36C139.27 48.8 140.657 48.52 142.204 48.52C144.364 48.52 146.15 48.96 147.564 49.84C149.004 50.72 149.924 51.92 150.324 53.44L147.324 54.8C147.004 53.76 146.444 52.9733 145.644 52.44C144.87 51.88 143.764 51.6 142.324 51.6C140.964 51.6 139.897 51.8933 139.124 52.48C138.35 53.0667 137.964 53.9067 137.964 55C137.964 56.0133 138.337 56.7867 139.084 57.32C139.857 57.8533 141.217 58.28 143.164 58.6C145.83 59.0267 147.79 59.84 149.044 61.04C150.324 62.2133 150.964 63.8267 150.964 65.88C150.964 67.2933 150.59 68.5467 149.844 69.64C149.124 70.7067 148.11 71.5333 146.804 72.12C145.524 72.7067 144.057 73 142.404 73C139.977 73 137.977 72.5067 136.404 71.52C134.83 70.56 133.777 69.16 133.244 67.32L136.244 65.96C136.67 67.2933 137.364 68.2933 138.324 68.96C139.31 69.6267 140.617 69.96 142.244 69.96C143.764 69.96 144.964 69.6133 145.844 68.92C146.724 68.2267 147.164 67.28 147.164 66.08C147.164 64.8 146.764 63.8533 145.964 63.24C145.164 62.6 143.724 62.1067 141.644 61.76C139.11 61.3333 137.23 60.5733 136.004 59.48C134.777 58.3867 134.164 56.9333 134.164 55.12Z" fill="white"/>
</svg>
