<svg width="236" height="112" viewBox="0 0 236 112" fill="none" xmlns="http://www.w3.org/2000/svg">
<path d="M118.493 72.52L112.453 62.84L106.493 72.52H102.133L110.213 60.6L102.333 49H106.973L112.693 58.44L118.533 49H122.773L114.973 60.64L123.013 72.52H118.493ZM128.527 63.24L127.487 40.48H132.087L131.047 63.24H128.527ZM129.807 67.68C130.581 67.68 131.194 67.9067 131.647 68.36C132.101 68.8133 132.327 69.4267 132.327 70.2C132.327 70.9733 132.101 71.5867 131.647 72.04C131.194 72.52 130.581 72.76 129.807 72.76C129.034 72.76 128.421 72.52 127.967 72.04C127.514 71.5867 127.287 70.9733 127.287 70.2C127.287 69.4267 127.514 68.8133 127.967 68.36C128.421 67.9067 129.034 67.68 129.807 67.68Z" fill="white"/>
</svg>
