<svg width="236" height="112" viewBox="0 0 236 112" fill="none" xmlns="http://www.w3.org/2000/svg">
<path d="M124.2 76.64H120.4C118.667 74.5067 117.134 71.7333 115.8 68.32C114.494 64.9067 113.84 61.1867 113.84 57.16C113.84 53.5333 114.414 50.0133 115.56 46.6C116.734 43.16 118.347 40.2133 120.4 37.76H124.2C122.36 39.84 120.814 42.6667 119.56 46.24C118.334 49.7867 117.72 53.4267 117.72 57.16C117.72 59.8267 118.054 62.4267 118.72 64.96C119.414 67.4933 120.254 69.7467 121.24 71.72C122.227 73.72 123.214 75.36 124.2 76.64Z" fill="white"/>
</svg>
