<svg width="236" height="112" viewBox="0 0 236 112" fill="none" xmlns="http://www.w3.org/2000/svg">
<path d="M107.298 40.48V72.52H103.178V40.48H107.298ZM133.474 56.92V72.52H129.674V57.52C129.674 55.6 129.221 54.1733 128.314 53.24C127.434 52.3067 126.087 51.84 124.274 51.84C122.247 51.84 120.621 52.5467 119.394 53.96C118.167 55.3467 117.554 57.2 117.554 59.52V72.52H113.714V54.52C113.714 52.3333 113.661 50.4933 113.554 49H116.914C117.047 49.8533 117.127 51.2667 117.154 53.24C118.834 50.0933 121.634 48.52 125.554 48.52C128.034 48.52 129.967 49.2667 131.354 50.76C132.767 52.2267 133.474 54.28 133.474 56.92Z" fill="white"/>
</svg>
