<svg width="236" height="112" viewBox="0 0 236 112" fill="none" xmlns="http://www.w3.org/2000/svg">
<path fill-rule="evenodd" clip-rule="evenodd" d="M132.677 40.6314C133.073 40.2354 133.271 40.0373 133.5 39.9632C133.7 39.8979 133.917 39.8979 134.118 39.9632C134.346 40.0373 134.544 40.2354 134.94 40.6314L135.034 40.7257C135.43 41.1217 135.628 41.3197 135.702 41.548C135.768 41.7488 135.768 41.9652 135.702 42.166C135.628 42.3944 135.43 42.5924 135.034 42.9884L106.656 71.367C106.26 71.763 106.062 71.961 105.833 72.0352C105.632 72.1004 105.416 72.1004 105.215 72.0352C104.987 71.961 104.789 71.763 104.393 71.3669L104.299 71.2727C103.903 70.8766 103.705 70.6786 103.63 70.4503C103.565 70.2495 103.565 70.0331 103.63 69.8323C103.705 69.6039 103.903 69.4059 104.299 69.0099L132.677 40.6314Z" fill="#FB7054"/>
<circle cx="109.668" cy="47.668" r="5" stroke="#FB7054" stroke-width="3"/>
<circle cx="128" cy="66" r="5" stroke="#FB7054" stroke-width="3"/>
</svg>
