<svg width="236" height="112" viewBox="0 0 236 112" fill="none" xmlns="http://www.w3.org/2000/svg">
<path d="M92.9533 52.16V66.48C92.9533 67.5733 93.2333 68.3867 93.7933 68.92C94.3533 69.4533 95.1666 69.72 96.2333 69.72C97.2466 69.72 98.0466 69.6133 98.6333 69.4V72.48C97.7799 72.8267 96.7533 73 95.5533 73C93.5799 73 92.0066 72.4267 90.8333 71.28C89.6866 70.16 89.1133 68.6133 89.1133 66.64V52.16H85.5133V49H89.1133V43.16H92.9533V49H98.6333V52.16H92.9533ZM123.444 67C123.444 69.6133 123.484 71.4533 123.564 72.52H120.164C120.084 72.04 120.004 70.6 119.924 68.2C119.124 69.72 118.058 70.8933 116.724 71.72C115.391 72.5733 113.831 73 112.044 73C110.204 73 108.538 72.48 107.044 71.44C105.578 70.4267 104.418 69 103.564 67.16C102.738 65.2933 102.324 63.1733 102.324 60.8C102.324 58.4 102.738 56.2667 103.564 54.4C104.418 52.5333 105.578 51.0933 107.044 50.08C108.538 49.04 110.204 48.52 112.044 48.52C113.831 48.52 115.391 48.9467 116.724 49.8C118.058 50.6267 119.124 51.8133 119.924 53.36C120.031 50.9067 120.111 49.4533 120.164 49H123.564C123.484 50.12 123.444 51.96 123.444 54.52V67ZM119.604 60.8C119.604 58.9867 119.324 57.3867 118.764 56C118.204 54.6133 117.418 53.5467 116.404 52.8C115.391 52.0533 114.218 51.68 112.884 51.68C111.578 51.68 110.418 52.0667 109.404 52.84C108.391 53.5867 107.604 54.6533 107.044 56.04C106.484 57.4 106.204 58.9867 106.204 60.8C106.204 62.5867 106.484 64.1733 107.044 65.56C107.631 66.92 108.418 67.9867 109.404 68.76C110.418 69.5067 111.578 69.88 112.884 69.88C114.191 69.88 115.351 69.5067 116.364 68.76C117.404 67.9867 118.204 66.92 118.764 65.56C119.324 64.1733 119.604 62.5867 119.604 60.8ZM149.099 56.92V72.52H145.299V57.52C145.299 55.6 144.846 54.1733 143.939 53.24C143.059 52.3067 141.712 51.84 139.899 51.84C137.872 51.84 136.246 52.5467 135.019 53.96C133.792 55.3467 133.179 57.2 133.179 59.52V72.52H129.339V54.52C129.339 52.3333 129.286 50.4933 129.179 49H132.539C132.672 49.8533 132.752 51.2667 132.779 53.24C134.459 50.0933 137.259 48.52 141.179 48.52C143.659 48.52 145.592 49.2667 146.979 50.76C148.392 52.2267 149.099 54.28 149.099 56.92Z" fill="white"/>
</svg>
