<svg width="236" height="112" viewBox="0 0 236 112" fill="none" xmlns="http://www.w3.org/2000/svg">
<path d="M124.423 72.52L118.383 62.84L112.423 72.52H108.063L116.143 60.6L108.263 49H112.903L118.623 58.44L124.463 49H128.703L120.903 60.64L128.943 72.52H124.423Z" fill="white"/>
<path d="M99.6827 50.5C99.6827 51.5533 99.4427 52.4867 98.9627 53.3C98.496 54.1133 97.8293 54.7467 96.9627 55.2C96.1093 55.6533 95.116 55.88 93.9827 55.88C92.6493 55.88 91.5027 55.5733 90.5427 54.96C89.596 54.36 88.9427 53.5333 88.5827 52.48L90.7627 51.2C91.0427 51.92 91.4493 52.4733 91.9827 52.86C92.5293 53.2467 93.196 53.44 93.9827 53.44C94.8227 53.44 95.5027 53.1733 96.0227 52.64C96.5427 52.0933 96.8027 51.38 96.8027 50.5C96.8027 49.62 96.5427 48.9267 96.0227 48.42C95.5027 47.9133 94.796 47.66 93.9027 47.66C92.9693 47.66 92.276 47.9733 91.8227 48.6L90.1427 46.74L95.3227 41.48H89.2227V39.02H98.9827V41.04L94.8827 45.24C95.816 45.2933 96.6427 45.5533 97.3627 46.02C98.096 46.4733 98.6627 47.0933 99.0627 47.88C99.476 48.6533 99.6827 49.5267 99.6827 50.5Z" fill="white"/>
<path d="M128.501 42H106.776L100.001 68.6882L91.9831 59H88.1523" stroke="white" stroke-width="3"/>
</svg>
