<svg width="236" height="112" viewBox="0 0 236 112" fill="none" xmlns="http://www.w3.org/2000/svg">
<path opacity="0.75" d="M118.423 72.52L112.383 62.84L106.423 72.52H102.063L110.143 60.6L102.263 49H106.903L112.623 58.44L118.463 49H122.703L114.903 60.64L122.943 72.52H118.423Z" fill="white"/>
<path d="M134.123 54.16V56.6H122.923V54.6L129.103 48.36C129.836 47.6267 130.343 47.0067 130.623 46.5C130.903 45.9933 131.043 45.4333 131.043 44.82C131.043 44.0333 130.803 43.4 130.323 42.92C129.843 42.44 129.196 42.2 128.383 42.2C127.596 42.2 126.943 42.4067 126.423 42.82C125.903 43.2333 125.516 43.8333 125.263 44.62L123.083 43.32C123.469 42.16 124.116 41.28 125.023 40.68C125.943 40.0667 127.103 39.76 128.503 39.76C129.569 39.76 130.523 39.98 131.363 40.42C132.203 40.8467 132.856 41.44 133.323 42.2C133.789 42.96 134.023 43.8267 134.023 44.8C134.023 45.4667 133.903 46.0867 133.663 46.66C133.423 47.2333 133.076 47.8 132.623 48.36C132.169 48.9067 131.543 49.58 130.743 50.38L127.063 54.16H134.123Z" fill="white"/>
</svg>
