<svg width="236" height="112" viewBox="0 0 236 112" fill="none" xmlns="http://www.w3.org/2000/svg">
<path opacity="0.75" d="M128.324 62.92C128.324 64.8667 127.884 66.6 127.004 68.12C126.124 69.64 124.898 70.8267 123.324 71.68C121.751 72.56 119.964 73 117.964 73C115.618 73 113.578 72.44 111.844 71.32C110.111 70.2267 108.938 68.7067 108.324 66.76L111.284 65.04C111.738 66.4533 112.551 67.5867 113.724 68.44C114.898 69.2667 116.311 69.68 117.964 69.68C119.911 69.68 121.484 69.0533 122.684 67.8C123.884 66.5467 124.484 64.92 124.484 62.92C124.484 60.8133 123.884 59.1733 122.684 58C121.511 56.8267 119.884 56.24 117.804 56.24C115.724 56.24 114.204 56.8667 113.244 58.12L111.004 55.72L121.844 43.84H109.684V40.48H126.764V43.16L117.884 52.92C117.991 52.8933 118.151 52.88 118.364 52.88C120.284 52.88 121.991 53.3067 123.484 54.16C125.004 54.9867 126.191 56.16 127.044 57.68C127.898 59.2 128.324 60.9467 128.324 62.92Z" fill="#262626"/>
</svg>
