<svg width="236" height="112" viewBox="0 0 236 112" fill="none" xmlns="http://www.w3.org/2000/svg">
<path opacity="0.75" d="M128.404 62.88C128.404 64.8267 127.951 66.5733 127.044 68.12C126.164 69.64 124.924 70.8267 123.324 71.68C121.724 72.56 119.924 73 117.924 73C115.524 73 113.458 72.44 111.724 71.32C109.991 70.2 108.858 68.7067 108.324 66.84L111.284 65.12C111.738 66.5333 112.538 67.6533 113.684 68.48C114.831 69.28 116.244 69.68 117.924 69.68C119.178 69.68 120.311 69.4 121.324 68.84C122.338 68.2533 123.138 67.4533 123.724 66.44C124.311 65.4 124.604 64.2133 124.604 62.88C124.604 61.5733 124.311 60.4133 123.724 59.4C123.164 58.36 122.378 57.56 121.364 57C120.351 56.44 119.218 56.16 117.964 56.16C116.711 56.16 115.631 56.4 114.724 56.88C113.844 57.3333 113.178 57.9733 112.724 58.8L109.564 57.96L111.404 40.48H126.924V43.8H114.804L113.684 54.4C115.231 53.36 116.831 52.84 118.484 52.84C120.378 52.84 122.071 53.28 123.564 54.16C125.084 55.0133 126.271 56.2133 127.124 57.76C127.978 59.28 128.404 60.9867 128.404 62.88Z" fill="#262626"/>
</svg>
