<svg width="236" height="112" viewBox="0 0 236 112" fill="none" xmlns="http://www.w3.org/2000/svg">
<path opacity="0.75" d="M102.924 69.16V72.52H82.5639V69.84L95.4039 56.64C96.5772 55.4133 97.4439 54.2533 98.0039 53.16C98.5639 52.04 98.8439 50.8667 98.8439 49.64C98.8439 47.72 98.2839 46.1867 97.1639 45.04C96.0439 43.8933 94.5239 43.32 92.6039 43.32C90.8972 43.32 89.4706 43.7467 88.3239 44.6C87.1772 45.4267 86.3772 46.6133 85.9239 48.16L82.9639 46.4C83.6306 44.3467 84.8039 42.7733 86.4839 41.68C88.1906 40.56 90.2706 40 92.7239 40C94.6706 40 96.4039 40.4133 97.9239 41.24C99.4439 42.04 100.631 43.1733 101.484 44.64C102.337 46.1067 102.764 47.76 102.764 49.6C102.764 51.3067 102.364 52.88 101.564 54.32C100.764 55.76 99.5239 57.36 97.8439 59.12L88.1639 69.16H102.924ZM128.075 56.92V72.52H124.275V57.52C124.275 55.6 123.822 54.1733 122.915 53.24C122.035 52.3067 120.689 51.84 118.875 51.84C116.849 51.84 115.222 52.5467 113.995 53.96C112.769 55.3467 112.155 57.2 112.155 59.52V72.52H108.315V54.52C108.315 52.3333 108.262 50.4933 108.155 49H111.515C111.649 49.8533 111.729 51.2667 111.755 53.24C113.435 50.0933 116.235 48.52 120.155 48.52C122.635 48.52 124.569 49.2667 125.955 50.76C127.369 52.2267 128.075 54.28 128.075 56.92ZM150.783 72.52C150.677 71.88 150.583 70.4533 150.503 68.24C149.703 69.76 148.637 70.9333 147.303 71.76C145.97 72.5867 144.423 73 142.663 73C140.797 73 139.13 72.48 137.663 71.44C136.197 70.4267 135.037 69 134.183 67.16C133.357 65.2933 132.943 63.1733 132.943 60.8C132.943 58.4 133.357 56.2667 134.183 54.4C135.037 52.5333 136.197 51.0933 137.663 50.08C139.157 49.04 140.823 48.52 142.663 48.52C144.29 48.52 145.743 48.8933 147.023 49.64C148.33 50.36 149.383 51.3867 150.183 52.72V39.12H154.023V67C154.023 69.24 154.077 71.08 154.183 72.52H150.783ZM150.183 60.8C150.183 58.9867 149.903 57.3867 149.343 56C148.783 54.6133 147.997 53.5467 146.983 52.8C145.997 52.0533 144.837 51.68 143.503 51.68C142.197 51.68 141.037 52.0667 140.023 52.84C139.01 53.5867 138.21 54.6533 137.623 56.04C137.063 57.4 136.783 58.9867 136.783 60.8C136.783 62.5867 137.063 64.1733 137.623 65.56C138.21 66.92 139.01 67.9867 140.023 68.76C141.037 69.5067 142.197 69.88 143.503 69.88C144.81 69.88 145.97 69.5067 146.983 68.76C147.997 67.9867 148.783 66.92 149.343 65.56C149.903 64.1733 150.183 62.5867 150.183 60.8Z" fill="#262626"/>
</svg>
