<svg width="236" height="112" viewBox="0 0 236 112" fill="none" xmlns="http://www.w3.org/2000/svg">
<path opacity="0.75" d="M99.6356 67C99.6356 69.6133 99.6756 71.4533 99.7556 72.52H96.3556C96.2756 72.04 96.1956 70.6 96.1156 68.2C95.3156 69.72 94.249 70.8933 92.9156 71.72C91.5823 72.5733 90.0223 73 88.2356 73C86.3956 73 84.729 72.48 83.2356 71.44C81.769 70.4267 80.609 69 79.7556 67.16C78.929 65.2933 78.5156 63.1733 78.5156 60.8C78.5156 58.4 78.929 56.2667 79.7556 54.4C80.609 52.5333 81.769 51.0933 83.2356 50.08C84.729 49.04 86.3956 48.52 88.2356 48.52C90.0223 48.52 91.5823 48.9467 92.9156 49.8C94.249 50.6267 95.3156 51.8133 96.1156 53.36C96.2223 50.9067 96.3023 49.4533 96.3556 49H99.7556C99.6756 50.12 99.6356 51.96 99.6356 54.52V67ZM95.7956 60.8C95.7956 58.9867 95.5156 57.3867 94.9556 56C94.3956 54.6133 93.609 53.5467 92.5956 52.8C91.5823 52.0533 90.409 51.68 89.0756 51.68C87.769 51.68 86.609 52.0667 85.5956 52.84C84.5823 53.5867 83.7956 54.6533 83.2356 56.04C82.6756 57.4 82.3956 58.9867 82.3956 60.8C82.3956 62.5867 82.6756 64.1733 83.2356 65.56C83.8223 66.92 84.609 67.9867 85.5956 68.76C86.609 69.5067 87.769 69.88 89.0756 69.88C90.3823 69.88 91.5423 69.5067 92.5556 68.76C93.5956 67.9867 94.3956 66.92 94.9556 65.56C95.5156 64.1733 95.7956 62.5867 95.7956 60.8ZM105.05 55.12C105.05 53.84 105.384 52.7067 106.05 51.72C106.744 50.7067 107.704 49.92 108.93 49.36C110.157 48.8 111.544 48.52 113.09 48.52C115.25 48.52 117.037 48.96 118.45 49.84C119.89 50.72 120.81 51.92 121.21 53.44L118.21 54.8C117.89 53.76 117.33 52.9733 116.53 52.44C115.757 51.88 114.65 51.6 113.21 51.6C111.85 51.6 110.784 51.8933 110.01 52.48C109.237 53.0667 108.85 53.9067 108.85 55C108.85 56.0133 109.224 56.7867 109.97 57.32C110.744 57.8533 112.104 58.28 114.05 58.6C116.717 59.0267 118.677 59.84 119.93 61.04C121.21 62.2133 121.85 63.8267 121.85 65.88C121.85 67.2933 121.477 68.5467 120.73 69.64C120.01 70.7067 118.997 71.5333 117.69 72.12C116.41 72.7067 114.944 73 113.29 73C110.864 73 108.864 72.5067 107.29 71.52C105.717 70.56 104.664 69.16 104.13 67.32L107.13 65.96C107.557 67.2933 108.25 68.2933 109.21 68.96C110.197 69.6267 111.504 69.96 113.13 69.96C114.65 69.96 115.85 69.6133 116.73 68.92C117.61 68.2267 118.05 67.28 118.05 66.08C118.05 64.8 117.65 63.8533 116.85 63.24C116.05 62.6 114.61 62.1067 112.53 61.76C109.997 61.3333 108.117 60.5733 106.89 59.48C105.664 58.3867 105.05 56.9333 105.05 55.12ZM128.786 40.36C129.559 40.36 130.173 40.6 130.626 41.08C131.079 41.5333 131.306 42.1467 131.306 42.92C131.306 43.6933 131.079 44.3067 130.626 44.76C130.173 45.2133 129.559 45.44 128.786 45.44C128.013 45.44 127.386 45.2133 126.906 44.76C126.453 44.3067 126.226 43.6933 126.226 42.92C126.226 42.1467 126.453 41.5333 126.906 41.08C127.386 40.6 128.013 40.36 128.786 40.36ZM130.706 49V72.52H126.826V49H130.706ZM156.697 56.92V72.52H152.897V57.52C152.897 55.6 152.443 54.1733 151.537 53.24C150.657 52.3067 149.31 51.84 147.497 51.84C145.47 51.84 143.843 52.5467 142.617 53.96C141.39 55.3467 140.777 57.2 140.777 59.52V72.52H136.937V54.52C136.937 52.3333 136.883 50.4933 136.777 49H140.137C140.27 49.8533 140.35 51.2667 140.377 53.24C142.057 50.0933 144.857 48.52 148.777 48.52C151.257 48.52 153.19 49.2667 154.577 50.76C155.99 52.2267 156.697 54.28 156.697 56.92Z" fill="#262626"/>
</svg>
