<svg width="236" height="112" viewBox="0 0 236 112" fill="none" xmlns="http://www.w3.org/2000/svg">
<path opacity="0.75" d="M101.386 63.16H88.8261L85.7461 72.52H81.5861L92.8661 40.48H97.6261L108.906 72.52H104.466L101.386 63.16ZM100.226 59.6L95.1461 44.12L90.0261 59.6H100.226ZM132.45 56.92V72.52H128.65V57.52C128.65 55.6 128.197 54.1733 127.29 53.24C126.41 52.3067 125.064 51.84 123.25 51.84C121.224 51.84 119.597 52.5467 118.37 53.96C117.144 55.3467 116.53 57.2 116.53 59.52V72.52H112.69V54.52C112.69 52.3333 112.637 50.4933 112.53 49H115.89C116.024 49.8533 116.104 51.2667 116.13 53.24C117.81 50.0933 120.61 48.52 124.53 48.52C127.01 48.52 128.944 49.2667 130.33 50.76C131.744 52.2267 132.45 54.28 132.45 56.92ZM137.718 55.12C137.718 53.84 138.052 52.7067 138.718 51.72C139.412 50.7067 140.372 49.92 141.598 49.36C142.825 48.8 144.212 48.52 145.758 48.52C147.918 48.52 149.705 48.96 151.118 49.84C152.558 50.72 153.478 51.92 153.878 53.44L150.878 54.8C150.558 53.76 149.998 52.9733 149.198 52.44C148.425 51.88 147.318 51.6 145.878 51.6C144.518 51.6 143.452 51.8933 142.678 52.48C141.905 53.0667 141.518 53.9067 141.518 55C141.518 56.0133 141.892 56.7867 142.638 57.32C143.412 57.8533 144.772 58.28 146.718 58.6C149.385 59.0267 151.345 59.84 152.598 61.04C153.878 62.2133 154.518 63.8267 154.518 65.88C154.518 67.2933 154.145 68.5467 153.398 69.64C152.678 70.7067 151.665 71.5333 150.358 72.12C149.078 72.7067 147.612 73 145.958 73C143.532 73 141.532 72.5067 139.958 71.52C138.385 70.56 137.332 69.16 136.798 67.32L139.798 65.96C140.225 67.2933 140.918 68.2933 141.878 68.96C142.865 69.6267 144.172 69.96 145.798 69.96C147.318 69.96 148.518 69.6133 149.398 68.92C150.278 68.2267 150.718 67.28 150.718 66.08C150.718 64.8 150.318 63.8533 149.518 63.24C148.718 62.6 147.278 62.1067 145.198 61.76C142.665 61.3333 140.785 60.5733 139.558 59.48C138.332 58.3867 137.718 56.9333 137.718 55.12Z" fill="#262626"/>
</svg>
