<svg width="236" height="112" viewBox="0 0 236 112" fill="none" xmlns="http://www.w3.org/2000/svg">
<path d="M119.76 69.52C123.733 69.52 126.24 67.72 127.28 64.12L130.68 65.72C130.067 67.9333 128.8 69.6933 126.88 71C124.987 72.3333 122.64 73 119.84 73C117.147 73 114.747 72.3067 112.64 70.92C110.56 69.56 108.933 67.64 107.76 65.16C106.613 62.6533 106.04 59.7733 106.04 56.52C106.04 53.2667 106.613 50.4 107.76 47.92C108.933 45.4133 110.56 43.4667 112.64 42.08C114.747 40.6933 117.147 40 119.84 40C122.667 40 125.027 40.6667 126.92 42C128.813 43.3067 130.067 45.0667 130.68 47.28L127.28 48.88C126.24 45.28 123.733 43.48 119.76 43.48C117.867 43.48 116.187 44.0267 114.72 45.12C113.28 46.1867 112.16 47.7067 111.36 49.68C110.56 51.6533 110.16 53.9333 110.16 56.52C110.16 59.08 110.56 61.3467 111.36 63.32C112.16 65.2933 113.28 66.8267 114.72 67.92C116.187 68.9867 117.867 69.52 119.76 69.52Z" fill="#FB7054"/>
</svg>
