<svg width="236" height="112" viewBox="0 0 236 112" fill="none" xmlns="http://www.w3.org/2000/svg">
<path opacity="0.75" d="M105.789 56.52C105.789 59.72 105.216 62.5333 104.069 64.96C102.949 67.36 101.322 69.2133 99.1889 70.52C97.0556 71.8533 94.5356 72.52 91.6289 72.52H80.7489V40.48H91.6289C94.5356 40.48 97.0556 41.1467 99.1889 42.48C101.322 43.7867 102.949 45.6533 104.069 48.08C105.216 50.48 105.789 53.2933 105.789 56.52ZM101.669 56.52C101.669 52.7067 100.736 49.68 98.8689 47.44C97.0022 45.1733 94.3756 44.04 90.9889 44.04H84.8689V68.96H90.9889C94.3756 68.96 97.0022 67.84 98.8689 65.6C100.736 63.36 101.669 60.3333 101.669 56.52ZM130.419 61.6H113.939C114.045 64.24 114.725 66.28 115.979 67.72C117.259 69.16 118.965 69.88 121.099 69.88C122.592 69.88 123.779 69.56 124.659 68.92C125.539 68.28 126.259 67.28 126.819 65.92L129.979 67.44C128.592 71.1467 125.645 73 121.139 73C118.899 73 116.939 72.4933 115.259 71.48C113.605 70.4667 112.325 69.04 111.419 67.2C110.512 65.36 110.059 63.2267 110.059 60.8C110.059 58.4 110.499 56.2667 111.379 54.4C112.285 52.5333 113.512 51.0933 115.059 50.08C116.632 49.04 118.405 48.52 120.379 48.52C122.459 48.52 124.259 49.0133 125.779 50C127.299 50.9867 128.459 52.4 129.259 54.24C130.059 56.0533 130.459 58.1867 130.459 60.64C130.459 61.12 130.445 61.44 130.419 61.6ZM114.059 58.68H126.579C126.392 56.4133 125.765 54.68 124.699 53.48C123.632 52.28 122.192 51.68 120.379 51.68C118.672 51.68 117.259 52.3067 116.139 53.56C115.019 54.7867 114.325 56.4933 114.059 58.68ZM155.512 49C155.405 50.4933 155.352 52.3333 155.352 54.52V71.36C155.352 74.64 154.445 77.1867 152.632 79C150.818 80.8133 148.218 81.72 144.832 81.72C142.085 81.72 139.845 81.24 138.112 80.28C136.378 79.3467 135.245 78.0133 134.712 76.28L137.832 74.84C138.232 76.0133 139.005 76.92 140.152 77.56C141.325 78.2267 142.818 78.56 144.632 78.56C146.872 78.56 148.578 77.96 149.752 76.76C150.952 75.56 151.552 73.8 151.552 71.48V68.44C150.725 69.7733 149.685 70.8 148.432 71.52C147.178 72.2667 145.738 72.64 144.112 72.64C142.298 72.64 140.658 72.1333 139.192 71.12C137.725 70.1333 136.578 68.7333 135.752 66.92C134.925 65.08 134.512 62.9733 134.512 60.6C134.512 58.2267 134.925 56.1333 135.752 54.32C136.578 52.48 137.725 51.0533 139.192 50.04C140.658 49.0267 142.298 48.52 144.112 48.52C145.845 48.52 147.365 48.9333 148.672 49.76C150.005 50.5867 151.072 51.76 151.872 53.28C151.898 51.3867 151.978 49.96 152.112 49H155.512ZM151.552 60.6C151.552 58.84 151.272 57.2933 150.712 55.96C150.152 54.6 149.365 53.5467 148.352 52.8C147.365 52.0533 146.232 51.68 144.952 51.68C143.672 51.68 142.525 52.0533 141.512 52.8C140.525 53.5467 139.752 54.6 139.192 55.96C138.658 57.2933 138.392 58.84 138.392 60.6C138.392 62.36 138.658 63.92 139.192 65.28C139.752 66.6133 140.525 67.6533 141.512 68.4C142.525 69.1467 143.672 69.52 144.952 69.52C146.232 69.52 147.365 69.1467 148.352 68.4C149.365 67.6533 150.152 66.6133 150.712 65.28C151.272 63.92 151.552 62.36 151.552 60.6Z" fill="#262626"/>
</svg>
