<svg width="236" height="112" viewBox="0 0 236 112" fill="none" xmlns="http://www.w3.org/2000/svg">
<path opacity="0.75" d="M128.133 61.6H111.653C111.76 64.24 112.44 66.28 113.693 67.72C114.973 69.16 116.68 69.88 118.813 69.88C120.307 69.88 121.493 69.56 122.373 68.92C123.253 68.28 123.973 67.28 124.533 65.92L127.693 67.44C126.307 71.1467 123.36 73 118.853 73C116.613 73 114.653 72.4933 112.973 71.48C111.32 70.4667 110.04 69.04 109.133 67.2C108.227 65.36 107.773 63.2267 107.773 60.8C107.773 58.4 108.213 56.2667 109.093 54.4C110 52.5333 111.227 51.0933 112.773 50.08C114.347 49.04 116.12 48.52 118.093 48.52C120.173 48.52 121.973 49.0133 123.493 50C125.013 50.9867 126.173 52.4 126.973 54.24C127.773 56.0533 128.173 58.1867 128.173 60.64C128.173 61.12 128.16 61.44 128.133 61.6ZM111.773 58.68H124.293C124.107 56.4133 123.48 54.68 122.413 53.48C121.347 52.28 119.907 51.68 118.093 51.68C116.387 51.68 114.973 52.3067 113.853 53.56C112.733 54.7867 112.04 56.4933 111.773 58.68Z" fill="#262626"/>
</svg>
