<svg width="236" height="112" viewBox="0 0 236 112" fill="none" xmlns="http://www.w3.org/2000/svg">
<path opacity="0.75" d="M94.4364 39.12V72.52H90.5564V39.12H94.4364ZM110.267 48.52C112.294 48.52 114.107 49.04 115.707 50.08C117.307 51.12 118.547 52.5733 119.427 54.44C120.334 56.28 120.787 58.4 120.787 60.8C120.787 63.1733 120.334 65.2933 119.427 67.16C118.547 69 117.307 70.4267 115.707 71.44C114.107 72.48 112.294 73 110.267 73C108.214 73 106.387 72.48 104.787 71.44C103.187 70.4267 101.934 69 101.027 67.16C100.147 65.2933 99.707 63.1733 99.707 60.8C99.707 58.4 100.147 56.28 101.027 54.44C101.934 52.5733 103.187 51.12 104.787 50.08C106.387 49.04 108.214 48.52 110.267 48.52ZM110.267 51.68C108.96 51.68 107.8 52.0667 106.787 52.84C105.774 53.5867 104.987 54.6533 104.427 56.04C103.867 57.4 103.587 58.9867 103.587 60.8C103.587 62.5867 103.867 64.1733 104.427 65.56C104.987 66.92 105.774 67.9867 106.787 68.76C107.8 69.5067 108.96 69.88 110.267 69.88C111.574 69.88 112.734 69.5067 113.747 68.76C114.76 67.9867 115.547 66.92 116.107 65.56C116.667 64.1733 116.947 62.5867 116.947 60.8C116.947 58.9867 116.667 57.4 116.107 56.04C115.547 54.6533 114.76 53.5867 113.747 52.84C112.734 52.0667 111.574 51.68 110.267 51.68ZM145.824 49C145.718 50.4933 145.664 52.3333 145.664 54.52V71.36C145.664 74.64 144.758 77.1867 142.944 79C141.131 80.8133 138.531 81.72 135.144 81.72C132.398 81.72 130.158 81.24 128.424 80.28C126.691 79.3467 125.558 78.0133 125.024 76.28L128.144 74.84C128.544 76.0133 129.318 76.92 130.464 77.56C131.638 78.2267 133.131 78.56 134.944 78.56C137.184 78.56 138.891 77.96 140.064 76.76C141.264 75.56 141.864 73.8 141.864 71.48V68.44C141.038 69.7733 139.998 70.8 138.744 71.52C137.491 72.2667 136.051 72.64 134.424 72.64C132.611 72.64 130.971 72.1333 129.504 71.12C128.038 70.1333 126.891 68.7333 126.064 66.92C125.238 65.08 124.824 62.9733 124.824 60.6C124.824 58.2267 125.238 56.1333 126.064 54.32C126.891 52.48 128.038 51.0533 129.504 50.04C130.971 49.0267 132.611 48.52 134.424 48.52C136.158 48.52 137.678 48.9333 138.984 49.76C140.318 50.5867 141.384 51.76 142.184 53.28C142.211 51.3867 142.291 49.96 142.424 49H145.824ZM141.864 60.6C141.864 58.84 141.584 57.2933 141.024 55.96C140.464 54.6 139.678 53.5467 138.664 52.8C137.678 52.0533 136.544 51.68 135.264 51.68C133.984 51.68 132.838 52.0533 131.824 52.8C130.838 53.5467 130.064 54.6 129.504 55.96C128.971 57.2933 128.704 58.84 128.704 60.6C128.704 62.36 128.971 63.92 129.504 65.28C130.064 66.6133 130.838 67.6533 131.824 68.4C132.838 69.1467 133.984 69.52 135.264 69.52C136.544 69.52 137.678 69.1467 138.664 68.4C139.678 67.6533 140.464 66.6133 141.024 65.28C141.584 63.92 141.864 62.36 141.864 60.6Z" fill="#262626"/>
</svg>
