<svg width="236" height="112" viewBox="0 0 236 112" fill="none" xmlns="http://www.w3.org/2000/svg">
<path opacity="0.75" d="M111.76 37.76H115.64C117.347 39.84 118.854 42.5867 120.16 46C121.467 49.4133 122.12 53.1333 122.12 57.16C122.12 60.8133 121.547 64.36 120.4 67.8C119.254 71.2133 117.667 74.16 115.64 76.64H111.76C113.627 74.56 115.174 71.7333 116.4 68.16C117.654 64.5867 118.28 60.92 118.28 57.16C118.28 54.52 117.934 51.9333 117.24 49.4C116.574 46.8667 115.734 44.6133 114.72 42.64C113.734 40.64 112.747 39.0133 111.76 37.76Z" fill="#262626"/>
</svg>
