<svg width="236" height="112" viewBox="0 0 236 112" fill="none" xmlns="http://www.w3.org/2000/svg">
<path opacity="0.75" d="M90.7069 59.24H85.7869V72.52H81.6669V40.48H93.6669C95.5069 40.48 97.1069 40.8667 98.4669 41.64C99.8535 42.4133 100.92 43.5067 101.667 44.92C102.414 46.3333 102.787 47.9733 102.787 49.84C102.787 52.4267 102.107 54.5467 100.747 56.2C99.4135 57.8533 97.5602 58.84 95.1869 59.16L104.867 72.52H99.8669L90.7069 59.24ZM85.7869 55.84H92.9069C94.7735 55.84 96.2002 55.32 97.1869 54.28C98.1735 53.24 98.6669 51.76 98.6669 49.84C98.6669 47.9467 98.1735 46.48 97.1869 45.44C96.2002 44.3733 94.7735 43.84 92.9069 43.84H85.7869V55.84ZM128.386 67C128.386 69.6133 128.426 71.4533 128.506 72.52H125.106C125.026 72.04 124.946 70.6 124.866 68.2C124.066 69.72 122.999 70.8933 121.666 71.72C120.332 72.5733 118.772 73 116.986 73C115.146 73 113.479 72.48 111.986 71.44C110.519 70.4267 109.359 69 108.506 67.16C107.679 65.2933 107.266 63.1733 107.266 60.8C107.266 58.4 107.679 56.2667 108.506 54.4C109.359 52.5333 110.519 51.0933 111.986 50.08C113.479 49.04 115.146 48.52 116.986 48.52C118.772 48.52 120.332 48.9467 121.666 49.8C122.999 50.6267 124.066 51.8133 124.866 53.36C124.972 50.9067 125.052 49.4533 125.106 49H128.506C128.426 50.12 128.386 51.96 128.386 54.52V67ZM124.546 60.8C124.546 58.9867 124.266 57.3867 123.706 56C123.146 54.6133 122.359 53.5467 121.346 52.8C120.332 52.0533 119.159 51.68 117.826 51.68C116.519 51.68 115.359 52.0667 114.346 52.84C113.332 53.5867 112.546 54.6533 111.986 56.04C111.426 57.4 111.146 58.9867 111.146 60.8C111.146 62.5867 111.426 64.1733 111.986 65.56C112.572 66.92 113.359 67.9867 114.346 68.76C115.359 69.5067 116.519 69.88 117.826 69.88C119.132 69.88 120.292 69.5067 121.306 68.76C122.346 67.9867 123.146 66.92 123.706 65.56C124.266 64.1733 124.546 62.5867 124.546 60.8ZM151.24 72.52C151.134 71.88 151.04 70.4533 150.96 68.24C150.16 69.76 149.094 70.9333 147.76 71.76C146.427 72.5867 144.88 73 143.12 73C141.254 73 139.587 72.48 138.12 71.44C136.654 70.4267 135.494 69 134.64 67.16C133.814 65.2933 133.4 63.1733 133.4 60.8C133.4 58.4 133.814 56.2667 134.64 54.4C135.494 52.5333 136.654 51.0933 138.12 50.08C139.614 49.04 141.28 48.52 143.12 48.52C144.747 48.52 146.2 48.8933 147.48 49.64C148.787 50.36 149.84 51.3867 150.64 52.72V39.12H154.48V67C154.48 69.24 154.534 71.08 154.64 72.52H151.24ZM150.64 60.8C150.64 58.9867 150.36 57.3867 149.8 56C149.24 54.6133 148.454 53.5467 147.44 52.8C146.454 52.0533 145.294 51.68 143.96 51.68C142.654 51.68 141.494 52.0667 140.48 52.84C139.467 53.5867 138.667 54.6533 138.08 56.04C137.52 57.4 137.24 58.9867 137.24 60.8C137.24 62.5867 137.52 64.1733 138.08 65.56C138.667 66.92 139.467 67.9867 140.48 68.76C141.494 69.5067 142.654 69.88 143.96 69.88C145.267 69.88 146.427 69.5067 147.44 68.76C148.454 67.9867 149.24 66.92 149.8 65.56C150.36 64.1733 150.64 62.5867 150.64 60.8Z" fill="#262626"/>
</svg>
