<svg width="236" height="112" viewBox="0 0 236 112" fill="none" xmlns="http://www.w3.org/2000/svg">
<path opacity="0.75" d="M92.023 55.12C92.023 53.84 92.3563 52.7067 93.023 51.72C93.7163 50.7067 94.6763 49.92 95.903 49.36C97.1296 48.8 98.5163 48.52 100.063 48.52C102.223 48.52 104.01 48.96 105.423 49.84C106.863 50.72 107.783 51.92 108.183 53.44L105.183 54.8C104.863 53.76 104.303 52.9733 103.503 52.44C102.73 51.88 101.623 51.6 100.183 51.6C98.823 51.6 97.7563 51.8933 96.983 52.48C96.2096 53.0667 95.823 53.9067 95.823 55C95.823 56.0133 96.1963 56.7867 96.943 57.32C97.7163 57.8533 99.0763 58.28 101.023 58.6C103.69 59.0267 105.65 59.84 106.903 61.04C108.183 62.2133 108.823 63.8267 108.823 65.88C108.823 67.2933 108.45 68.5467 107.703 69.64C106.983 70.7067 105.97 71.5333 104.663 72.12C103.383 72.7067 101.916 73 100.263 73C97.8363 73 95.8363 72.5067 94.263 71.52C92.6896 70.56 91.6363 69.16 91.103 67.32L94.103 65.96C94.5296 67.2933 95.223 68.2933 96.183 68.96C97.1696 69.6267 98.4763 69.96 100.103 69.96C101.623 69.96 102.823 69.6133 103.703 68.92C104.583 68.2267 105.023 67.28 105.023 66.08C105.023 64.8 104.623 63.8533 103.823 63.24C103.023 62.6 101.583 62.1067 99.503 61.76C96.9696 61.3333 95.0896 60.5733 93.863 59.48C92.6363 58.3867 92.023 56.9333 92.023 55.12ZM115.759 40.36C116.532 40.36 117.145 40.6 117.599 41.08C118.052 41.5333 118.279 42.1467 118.279 42.92C118.279 43.6933 118.052 44.3067 117.599 44.76C117.145 45.2133 116.532 45.44 115.759 45.44C114.985 45.44 114.359 45.2133 113.879 44.76C113.425 44.3067 113.199 43.6933 113.199 42.92C113.199 42.1467 113.425 41.5333 113.879 41.08C114.359 40.6 114.985 40.36 115.759 40.36ZM117.679 49V72.52H113.799V49H117.679ZM143.669 56.92V72.52H139.869V57.52C139.869 55.6 139.416 54.1733 138.509 53.24C137.629 52.3067 136.283 51.84 134.469 51.84C132.443 51.84 130.816 52.5467 129.589 53.96C128.363 55.3467 127.749 57.2 127.749 59.52V72.52H123.909V54.52C123.909 52.3333 123.856 50.4933 123.749 49H127.109C127.243 49.8533 127.323 51.2667 127.349 53.24C129.029 50.0933 131.829 48.52 135.749 48.52C138.229 48.52 140.163 49.2667 141.549 50.76C142.963 52.2267 143.669 54.28 143.669 56.92Z" fill="#262626"/>
</svg>
