<svg width="236" height="112" viewBox="0 0 236 112" fill="none" xmlns="http://www.w3.org/2000/svg">
<path opacity="0.75" d="M118.423 72.52L112.383 62.84L106.423 72.52H102.063L110.143 60.6L102.263 49H106.903L112.623 58.44L118.463 49H122.703L114.903 60.64L122.943 72.52H118.423Z" fill="#262626"/>
<path d="M134.183 51.5C134.183 52.5533 133.943 53.4867 133.463 54.3C132.996 55.1133 132.329 55.7467 131.463 56.2C130.609 56.6533 129.616 56.88 128.483 56.88C127.149 56.88 126.003 56.5733 125.043 55.96C124.096 55.36 123.443 54.5333 123.083 53.48L125.263 52.2C125.543 52.92 125.949 53.4733 126.483 53.86C127.029 54.2467 127.696 54.44 128.483 54.44C129.323 54.44 130.003 54.1733 130.523 53.64C131.043 53.0933 131.303 52.38 131.303 51.5C131.303 50.62 131.043 49.9267 130.523 49.42C130.003 48.9133 129.296 48.66 128.403 48.66C127.469 48.66 126.776 48.9733 126.323 49.6L124.643 47.74L129.823 42.48H123.723V40.02H133.483V42.04L129.383 46.24C130.316 46.2933 131.143 46.5533 131.863 47.02C132.596 47.4733 133.163 48.0933 133.563 48.88C133.976 49.6533 134.183 50.5267 134.183 51.5Z" fill="#262626" fill-opacity="0.75"/>
</svg>
