<svg width="236" height="112" viewBox="0 0 236 112" fill="none" xmlns="http://www.w3.org/2000/svg">
<path opacity="0.75" d="M124.423 72.52L118.383 62.84L112.423 72.52H108.063L116.143 60.6L108.263 49H112.903L118.623 58.44L124.463 49H128.703L120.903 60.64L128.943 72.52H124.423Z" fill="#262626"/>
<path d="M100.623 53.16V55.6H89.4227V53.6L95.6027 47.36C96.336 46.6267 96.8427 46.0067 97.1227 45.5C97.4027 44.9933 97.5427 44.4333 97.5427 43.82C97.5427 43.0333 97.3027 42.4 96.8227 41.92C96.3427 41.44 95.696 41.2 94.8827 41.2C94.096 41.2 93.4427 41.4067 92.9227 41.82C92.4027 42.2333 92.016 42.8333 91.7627 43.62L89.5827 42.32C89.9693 41.16 90.616 40.28 91.5227 39.68C92.4427 39.0667 93.6027 38.76 95.0027 38.76C96.0693 38.76 97.0227 38.98 97.8627 39.42C98.7027 39.8467 99.356 40.44 99.8227 41.2C100.289 41.96 100.523 42.8267 100.523 43.8C100.523 44.4667 100.403 45.0867 100.163 45.66C99.9227 46.2333 99.576 46.8 99.1227 47.36C98.6693 47.9067 98.0427 48.58 97.2427 49.38L93.5627 53.16H100.623Z" fill="#262626" fill-opacity="0.75"/>
<path d="M128.501 42H106.776L100.001 68.6882L91.9831 59H88.1523" stroke="#262628" stroke-opacity="0.75" stroke-width="3"/>
</svg>
