<svg width="200" height="80" viewBox="0 0 200 80" fill="none" xmlns="http://www.w3.org/2000/svg">
<path opacity="0.75" d="M100.003 49.8C97.8585 49.8 96.2265 48.952 95.1065 47.256C93.9865 45.544 93.4265 43.096 93.4265 39.912C93.4265 36.712 93.9865 34.264 95.1065 32.568C96.2265 30.856 97.8585 30 100.003 30C102.147 30 103.779 30.856 104.899 32.568C106.019 34.264 106.579 36.712 106.579 39.912C106.579 43.096 106.019 45.544 104.899 47.256C103.779 48.952 102.147 49.8 100.003 49.8ZM100.003 47.808C102.819 47.808 104.227 45.176 104.227 39.912C104.227 37.256 103.875 35.272 103.171 33.96C102.483 32.648 101.427 31.992 100.003 31.992C98.5785 31.992 97.5145 32.648 96.8105 33.96C96.1225 35.272 95.7785 37.256 95.7785 39.912C95.7785 42.552 96.1225 44.528 96.8105 45.84C97.5145 47.152 98.5785 47.808 100.003 47.808Z" fill="#262626"/>
</svg>
