<svg width="100" height="80" viewBox="0 0 100 80" fill="none" xmlns="http://www.w3.org/2000/svg">
<path opacity="0.75" d="M56.1465 47.496V49.512H43.9305V47.904L51.6345 39.984C52.3385 39.248 52.8585 38.552 53.1945 37.896C53.5305 37.224 53.6985 36.52 53.6985 35.784C53.6985 34.632 53.3625 33.712 52.6905 33.024C52.0185 32.336 51.1065 31.992 49.9545 31.992C48.9305 31.992 48.0745 32.248 47.3865 32.76C46.6985 33.256 46.2185 33.968 45.9465 34.896L44.1705 33.84C44.5705 32.608 45.2745 31.664 46.2825 31.008C47.3065 30.336 48.5545 30 50.0265 30C51.1945 30 52.2345 30.248 53.1465 30.744C54.0585 31.224 54.7705 31.904 55.2825 32.784C55.7945 33.664 56.0505 34.656 56.0505 35.76C56.0505 36.784 55.8105 37.728 55.3305 38.592C54.8505 39.456 54.1065 40.416 53.0985 41.472L47.2905 47.496H56.1465Z" fill="#262626"/>
</svg>
