<svg width="100" height="80" viewBox="0 0 100 80" fill="none" xmlns="http://www.w3.org/2000/svg">
<path opacity="0.75" d="M56.1945 43.752C56.1945 44.92 55.9305 45.96 55.4025 46.872C54.8745 47.784 54.1385 48.496 53.1945 49.008C52.2505 49.536 51.1785 49.8 49.9785 49.8C48.5705 49.8 47.3465 49.464 46.3065 48.792C45.2665 48.136 44.5625 47.224 44.1945 46.056L45.9705 45.024C46.2425 45.872 46.7305 46.552 47.4345 47.064C48.1385 47.56 48.9865 47.808 49.9785 47.808C51.1465 47.808 52.0905 47.432 52.8105 46.68C53.5305 45.928 53.8905 44.952 53.8905 43.752C53.8905 42.488 53.5305 41.504 52.8105 40.8C52.1065 40.096 51.1305 39.744 49.8825 39.744C48.6345 39.744 47.7225 40.12 47.1465 40.872L45.8025 39.432L52.3065 32.304H45.0105V30.288H55.2585V31.896L49.9305 37.752C49.9945 37.736 50.0905 37.728 50.2185 37.728C51.3705 37.728 52.3945 37.984 53.2905 38.496C54.2025 38.992 54.9145 39.696 55.4265 40.608C55.9385 41.52 56.1945 42.568 56.1945 43.752Z" fill="#262626"/>
</svg>
