<svg width="100" height="80" viewBox="0 0 100 80" fill="none" xmlns="http://www.w3.org/2000/svg">
<path opacity="0.75" d="M56.2425 43.728C56.2425 44.896 55.9705 45.944 55.4265 46.872C54.8985 47.784 54.1545 48.496 53.1945 49.008C52.2345 49.536 51.1545 49.8 49.9545 49.8C48.5145 49.8 47.2745 49.464 46.2345 48.792C45.1945 48.12 44.5145 47.224 44.1945 46.104L45.9705 45.072C46.2425 45.92 46.7225 46.592 47.4105 47.088C48.0985 47.568 48.9465 47.808 49.9545 47.808C50.7065 47.808 51.3865 47.64 51.9945 47.304C52.6025 46.952 53.0825 46.472 53.4345 45.864C53.7865 45.24 53.9625 44.528 53.9625 43.728C53.9625 42.944 53.7865 42.248 53.4345 41.64C53.0985 41.016 52.6265 40.536 52.0185 40.2C51.4105 39.864 50.7305 39.696 49.9785 39.696C49.2265 39.696 48.5785 39.84 48.0345 40.128C47.5065 40.4 47.1065 40.784 46.8345 41.28L44.9385 40.776L46.0425 30.288H55.3545V32.28H48.0825L47.4105 38.64C48.3385 38.016 49.2985 37.704 50.2905 37.704C51.4265 37.704 52.4425 37.968 53.3385 38.496C54.2505 39.008 54.9625 39.728 55.4745 40.656C55.9865 41.568 56.2425 42.592 56.2425 43.728Z" fill="#262626"/>
</svg>
