<svg width="100" height="80" viewBox="0 0 100 80" fill="none" xmlns="http://www.w3.org/2000/svg">
<path opacity="0.75" d="M56.1225 43.8C56.1225 44.936 55.8585 45.968 55.3305 46.896C54.8025 47.808 54.0745 48.52 53.1465 49.032C52.2185 49.544 51.1705 49.8 50.0025 49.8C48.8025 49.8 47.7305 49.536 46.7865 49.008C45.8585 48.496 45.1305 47.768 44.6025 46.824C44.0905 45.864 43.8345 44.76 43.8345 43.512C43.8345 42.232 44.0745 40.976 44.5545 39.744C45.0345 38.496 45.8345 37.056 46.9545 35.424L50.4585 30.288H53.1225L48.9465 36.168C48.2585 37.128 47.6985 38.024 47.2665 38.856C48.1785 38.168 49.2025 37.824 50.3385 37.824C51.4585 37.824 52.4585 38.08 53.3385 38.592C54.2185 39.088 54.8985 39.792 55.3785 40.704C55.8745 41.6 56.1225 42.632 56.1225 43.8ZM53.8425 43.8C53.8425 42.584 53.4905 41.616 52.7865 40.896C52.0985 40.16 51.1705 39.792 50.0025 39.792C48.8825 39.792 47.9785 40.128 47.2905 40.8C46.6025 41.456 46.2185 42.344 46.1385 43.464V43.8C46.1385 45 46.4905 45.968 47.1945 46.704C47.9145 47.44 48.8505 47.808 50.0025 47.808C51.1385 47.808 52.0585 47.44 52.7625 46.704C53.4825 45.968 53.8425 45 53.8425 43.8Z" fill="#262626"/>
</svg>
