<svg width="100" height="80" viewBox="0 0 100 80" fill="none" xmlns="http://www.w3.org/2000/svg">
<path opacity="0.75" d="M56.2185 43.992C56.2185 45.112 55.9545 46.112 55.4265 46.992C54.9145 47.872 54.1865 48.56 53.2425 49.056C52.2985 49.552 51.2185 49.8 50.0025 49.8C48.7865 49.8 47.6985 49.552 46.7385 49.056C45.7945 48.56 45.0585 47.872 44.5305 46.992C44.0025 46.112 43.7385 45.112 43.7385 43.992C43.7385 42.872 44.0265 41.88 44.6025 41.016C45.1945 40.152 46.0105 39.504 47.0505 39.072C46.2825 38.656 45.6825 38.104 45.2505 37.416C44.8185 36.712 44.6025 35.928 44.6025 35.064C44.6025 34.088 44.8265 33.216 45.2745 32.448C45.7385 31.68 46.3785 31.08 47.1945 30.648C48.0105 30.216 48.9465 30 50.0025 30C51.0425 30 51.9705 30.216 52.7865 30.648C53.6025 31.08 54.2345 31.688 54.6825 32.472C55.1465 33.24 55.3785 34.104 55.3785 35.064C55.3785 35.928 55.1625 36.712 54.7305 37.416C54.2985 38.104 53.6985 38.656 52.9305 39.072C53.9545 39.504 54.7545 40.152 55.3305 41.016C55.9225 41.864 56.2185 42.856 56.2185 43.992ZM46.7865 35.04C46.7865 35.984 47.0825 36.752 47.6745 37.344C48.2665 37.936 49.0425 38.232 50.0025 38.232C50.9465 38.232 51.7145 37.936 52.3065 37.344C52.9145 36.752 53.2185 35.984 53.2185 35.04C53.2185 34.096 52.9225 33.328 52.3305 32.736C51.7385 32.128 50.9625 31.824 50.0025 31.824C49.0425 31.824 48.2665 32.12 47.6745 32.712C47.0825 33.304 46.7865 34.08 46.7865 35.04ZM54.0105 43.944C54.0105 42.76 53.6425 41.808 52.9065 41.088C52.1865 40.368 51.2185 40.008 50.0025 40.008C48.7865 40.008 47.8105 40.368 47.0745 41.088C46.3385 41.808 45.9705 42.76 45.9705 43.944C45.9705 45.128 46.3465 46.08 47.0985 46.8C47.8505 47.52 48.8185 47.88 50.0025 47.88C51.1865 47.88 52.1465 47.52 52.8825 46.8C53.6345 46.08 54.0105 45.128 54.0105 43.944Z" fill="#262626"/>
</svg>
