<svg width="100" height="80" viewBox="0 0 100 80" fill="none" xmlns="http://www.w3.org/2000/svg">
<path opacity="0.75" d="M56.1225 36.312C56.1225 37.576 55.8825 38.824 55.4025 40.056C54.9225 41.288 54.1305 42.728 53.0265 44.376L49.5465 49.512H46.8585L51.0585 43.632C51.7625 42.656 52.3145 41.768 52.7145 40.968C51.8345 41.656 50.8105 42 49.6425 42C48.5225 42 47.5225 41.744 46.6425 41.232C45.7625 40.72 45.0745 40.016 44.5785 39.12C44.0825 38.208 43.8345 37.168 43.8345 36C43.8345 34.848 44.0985 33.816 44.6265 32.904C45.1705 31.992 45.9065 31.28 46.8345 30.768C47.7785 30.256 48.8425 30 50.0265 30C51.2265 30 52.2825 30.264 53.1945 30.792C54.1225 31.304 54.8425 32.04 55.3545 33C55.8665 33.944 56.1225 35.048 56.1225 36.312ZM50.0265 40.008C51.1145 40.008 52.0025 39.68 52.6905 39.024C53.3785 38.352 53.7625 37.456 53.8425 36.336V36C53.8425 34.784 53.4905 33.816 52.7865 33.096C52.0825 32.36 51.1625 31.992 50.0265 31.992C48.8585 31.992 47.9145 32.36 47.1945 33.096C46.4905 33.832 46.1385 34.8 46.1385 36C46.1385 37.232 46.4905 38.208 47.1945 38.928C47.8985 39.648 48.8425 40.008 50.0265 40.008Z" fill="#262626"/>
</svg>
