<svg width="100" height="80" viewBox="0 0 100 80" fill="none" xmlns="http://www.w3.org/2000/svg">
<path d="M51.5559 47.712C53.9399 47.712 55.4439 46.632 56.0679 44.472L58.1079 45.432C57.7399 46.76 56.9799 47.816 55.8279 48.6C54.6919 49.4 53.2839 49.8 51.6039 49.8C49.9879 49.8 48.5479 49.384 47.2839 48.552C46.0359 47.736 45.0599 46.584 44.3559 45.096C43.6679 43.592 43.3239 41.864 43.3239 39.912C43.3239 37.96 43.6679 36.24 44.3559 34.752C45.0599 33.248 46.0359 32.08 47.2839 31.248C48.5479 30.416 49.9879 30 51.6039 30C53.2999 30 54.7159 30.4 55.8519 31.2C56.9879 31.984 57.7399 33.04 58.1079 34.368L56.0679 35.328C55.4439 33.168 53.9399 32.088 51.5559 32.088C50.4199 32.088 49.4119 32.416 48.5319 33.072C47.6679 33.712 46.9959 34.624 46.5159 35.808C46.0359 36.992 45.7959 38.36 45.7959 39.912C45.7959 41.448 46.0359 42.808 46.5159 43.992C46.9959 45.176 47.6679 46.096 48.5319 46.752C49.4119 47.392 50.4199 47.712 51.5559 47.712Z" fill="#FB7054"/>
</svg>
