<svg width="100" height="80" viewBox="0 0 100 80" fill="none" xmlns="http://www.w3.org/2000/svg">
<path d="M42.7397 33.8807C43.2802 32.9572 43.448 32.6931 43.655 32.5082C43.8629 32.3226 44.1073 32.1825 44.3725 32.0968C44.6367 32.0115 44.9493 32 46.0194 32H57.8C58.3766 32 58.7488 32.0008 59.0322 32.0239C59.3038 32.0461 59.4045 32.0838 59.454 32.109C59.6422 32.2049 59.7951 32.3578 59.891 32.546L60.7729 32.0967L59.891 32.546C59.9162 32.5955 59.9539 32.6962 59.9761 32.9678C59.9992 33.2512 60 33.6234 60 34.2V45.8C60 46.3766 59.9992 46.7488 59.9761 47.0322C59.9539 47.3038 59.9162 47.4045 59.891 47.454C59.7951 47.6422 59.6422 47.7951 59.454 47.891C59.4045 47.9162 59.3038 47.9539 59.0322 47.9761C58.7488 47.9992 58.3766 48 57.8 48H46.0194C44.9493 48 44.6367 47.9885 44.3725 47.9032C44.1073 47.8175 43.8629 47.6774 43.655 47.4918C43.448 47.3069 43.2802 47.0428 42.7397 46.1193L39.8089 41.1112C39.43 40.4637 39.3653 40.3296 39.3396 40.2102C39.3098 40.0717 39.3098 39.9283 39.3396 39.7898C39.3653 39.6704 39.43 39.5363 39.8089 38.8888L42.7397 33.8807Z" stroke="#FB7054" stroke-width="2"/>
<path fill-rule="evenodd" clip-rule="evenodd" d="M53.828 35.7579C54.2186 35.3674 54.8517 35.3674 55.2423 35.7579C55.6328 36.1484 55.6328 36.7816 55.2423 37.1721L48.1712 44.2432C47.7807 44.6337 47.1475 44.6337 46.757 44.2432C46.3665 43.8526 46.3665 43.2195 46.757 42.829L53.828 35.7579Z" fill="#FB7054"/>
<path fill-rule="evenodd" clip-rule="evenodd" d="M48.172 35.7579C47.7814 35.3674 47.1483 35.3674 46.7577 35.7579C46.3672 36.1484 46.3672 36.7816 46.7577 37.1721L53.8288 44.2432C54.2193 44.6337 54.8525 44.6337 55.243 44.2432C55.6335 43.8526 55.6335 43.2195 55.243 42.829L48.172 35.7579Z" fill="#FB7054"/>
</svg>
